<svg width="1024" height="1024" viewBox="0 0 55 54" fill="none" xmlns="http://www.w3.org/2000/svg">
<path d="M7.61807 29.0861V12.6193H15.1737V28.89C15.1737 30.5368 15.6495 31.8304 16.6031 32.7716C17.5561 33.7128 18.8494 34.1834 20.4831 34.1834C22.1167 34.1834 23.41 33.7128 24.363 32.7716C25.3159 31.8304 25.7924 30.5368 25.7924 28.89V12.6193H33.348V29.0861C33.348 32.6409 32.1902 35.4902 29.8765 37.6326C27.5622 39.7764 24.4303 40.8475 20.4831 40.8475C16.5351 40.8475 13.4032 39.7764 11.0896 37.6326C8.77524 35.4895 7.61807 32.6409 7.61807 29.0861Z" fill="black"/>
<path d="M48.2928 12.6221H40.8168V19.7985H48.2928V12.6221Z" fill="black"/>
</svg>
